<mxfile host="app.diagrams.net" modified="2023-10-15T11:07:53.684Z" agent="Mozilla/5.0 (Windows NT 10.0; Win64; x64) AppleWebKit/537.36 (KHTML, like Gecko) Chrome/118.0.0.0 Safari/537.36" etag="xyRp9XF8sFT8i7c6pkpR" version="22.0.4" type="github">
  <diagram name="Page-1" id="znZ29VpfTOB51SgeRxZB">
    <mxGraphModel dx="3850" dy="1617" grid="1" gridSize="10" guides="1" tooltips="1" connect="1" arrows="1" fold="1" page="1" pageScale="1" pageWidth="850" pageHeight="1100" math="0" shadow="0">
      <root>
        <mxCell id="0" />
        <mxCell id="1" parent="0" />
        <mxCell id="hcwAdXsDCzIdvA3kFpK7-1" value="AirplaneID" style="ellipse;whiteSpace=wrap;html=1;align=center;" vertex="1" parent="1">
          <mxGeometry x="-100" y="120" width="100" height="40" as="geometry" />
        </mxCell>
        <mxCell id="hcwAdXsDCzIdvA3kFpK7-2" value="DepartureAirportID" style="ellipse;whiteSpace=wrap;html=1;align=center;" vertex="1" parent="1">
          <mxGeometry x="560" y="110" width="100" height="40" as="geometry" />
        </mxCell>
        <mxCell id="hcwAdXsDCzIdvA3kFpK7-3" value="Capacity" style="ellipse;whiteSpace=wrap;html=1;align=center;" vertex="1" parent="1">
          <mxGeometry x="130" y="110" width="100" height="40" as="geometry" />
        </mxCell>
        <mxCell id="hcwAdXsDCzIdvA3kFpK7-4" value="Maintenance status" style="ellipse;whiteSpace=wrap;html=1;align=center;" vertex="1" parent="1">
          <mxGeometry x="250" y="110" width="100" height="40" as="geometry" />
        </mxCell>
        <mxCell id="hcwAdXsDCzIdvA3kFpK7-5" value="Airplane" style="whiteSpace=wrap;html=1;align=center;" vertex="1" parent="1">
          <mxGeometry x="90" y="230" width="100" height="40" as="geometry" />
        </mxCell>
        <mxCell id="hcwAdXsDCzIdvA3kFpK7-7" value="" style="endArrow=none;html=1;rounded=0;entryX=1;entryY=1;entryDx=0;entryDy=0;exitX=0.25;exitY=0;exitDx=0;exitDy=0;" edge="1" parent="1" source="hcwAdXsDCzIdvA3kFpK7-5" target="hcwAdXsDCzIdvA3kFpK7-1">
          <mxGeometry width="50" height="50" relative="1" as="geometry">
            <mxPoint x="180" y="220" as="sourcePoint" />
            <mxPoint x="100" y="240" as="targetPoint" />
            <Array as="points">
              <mxPoint x="90" y="230" />
            </Array>
          </mxGeometry>
        </mxCell>
        <mxCell id="hcwAdXsDCzIdvA3kFpK7-9" value="" style="endArrow=none;html=1;rounded=0;exitX=0.43;exitY=1.05;exitDx=0;exitDy=0;entryX=1;entryY=0;entryDx=0;entryDy=0;exitPerimeter=0;" edge="1" parent="1" source="hcwAdXsDCzIdvA3kFpK7-4" target="hcwAdXsDCzIdvA3kFpK7-5">
          <mxGeometry width="50" height="50" relative="1" as="geometry">
            <mxPoint x="130" y="280" as="sourcePoint" />
            <mxPoint x="180" y="230" as="targetPoint" />
          </mxGeometry>
        </mxCell>
        <mxCell id="hcwAdXsDCzIdvA3kFpK7-10" value="" style="endArrow=none;html=1;rounded=0;exitX=0.174;exitY=-0.01;exitDx=0;exitDy=0;exitPerimeter=0;" edge="1" parent="1" source="hcwAdXsDCzIdvA3kFpK7-5" target="hcwAdXsDCzIdvA3kFpK7-19">
          <mxGeometry width="50" height="50" relative="1" as="geometry">
            <mxPoint x="200" y="210" as="sourcePoint" />
            <mxPoint x="205" y="160" as="targetPoint" />
          </mxGeometry>
        </mxCell>
        <mxCell id="hcwAdXsDCzIdvA3kFpK7-11" value="" style="endArrow=none;html=1;rounded=0;entryX=0;entryY=1;entryDx=0;entryDy=0;exitX=0.75;exitY=0;exitDx=0;exitDy=0;" edge="1" parent="1" source="hcwAdXsDCzIdvA3kFpK7-5" target="hcwAdXsDCzIdvA3kFpK7-3">
          <mxGeometry width="50" height="50" relative="1" as="geometry">
            <mxPoint x="210" y="220" as="sourcePoint" />
            <mxPoint x="105" y="164" as="targetPoint" />
            <Array as="points" />
          </mxGeometry>
        </mxCell>
        <mxCell id="hcwAdXsDCzIdvA3kFpK7-12" value="Flight" style="whiteSpace=wrap;html=1;align=center;" vertex="1" parent="1">
          <mxGeometry x="560" y="220" width="100" height="40" as="geometry" />
        </mxCell>
        <mxCell id="hcwAdXsDCzIdvA3kFpK7-13" value="FlightNumber" style="ellipse;whiteSpace=wrap;html=1;align=center;" vertex="1" parent="1">
          <mxGeometry x="440" y="110" width="100" height="40" as="geometry" />
        </mxCell>
        <mxCell id="hcwAdXsDCzIdvA3kFpK7-14" value="ArrivalAirportID" style="ellipse;whiteSpace=wrap;html=1;align=center;" vertex="1" parent="1">
          <mxGeometry x="720" y="130" width="100" height="40" as="geometry" />
        </mxCell>
        <mxCell id="hcwAdXsDCzIdvA3kFpK7-15" value="ScheduleDepartureTime" style="ellipse;whiteSpace=wrap;html=1;align=center;" vertex="1" parent="1">
          <mxGeometry x="400" y="320" width="150" height="40" as="geometry" />
        </mxCell>
        <mxCell id="hcwAdXsDCzIdvA3kFpK7-16" value="ScheduleArrivalTime" style="ellipse;whiteSpace=wrap;html=1;align=center;" vertex="1" parent="1">
          <mxGeometry x="685" y="320" width="150" height="40" as="geometry" />
        </mxCell>
        <mxCell id="hcwAdXsDCzIdvA3kFpK7-17" value="ActualDepartureTime" style="ellipse;whiteSpace=wrap;html=1;align=center;" vertex="1" parent="1">
          <mxGeometry x="695" y="220" width="150" height="40" as="geometry" />
        </mxCell>
        <mxCell id="hcwAdXsDCzIdvA3kFpK7-18" value="ActualArrivalTime" style="ellipse;whiteSpace=wrap;html=1;align=center;" vertex="1" parent="1">
          <mxGeometry x="700" y="270" width="150" height="40" as="geometry" />
        </mxCell>
        <mxCell id="hcwAdXsDCzIdvA3kFpK7-19" value="Model" style="ellipse;whiteSpace=wrap;html=1;align=center;" vertex="1" parent="1">
          <mxGeometry x="30" y="110" width="100" height="40" as="geometry" />
        </mxCell>
        <mxCell id="hcwAdXsDCzIdvA3kFpK7-21" value="Name" style="ellipse;whiteSpace=wrap;html=1;align=center;" vertex="1" parent="1">
          <mxGeometry x="880" y="590" width="100" height="40" as="geometry" />
        </mxCell>
        <mxCell id="hcwAdXsDCzIdvA3kFpK7-22" value="ContactInfo" style="ellipse;whiteSpace=wrap;html=1;align=center;" vertex="1" parent="1">
          <mxGeometry x="900" y="520" width="100" height="40" as="geometry" />
        </mxCell>
        <mxCell id="hcwAdXsDCzIdvA3kFpK7-23" value="SeatNumber" style="ellipse;whiteSpace=wrap;html=1;align=center;" vertex="1" parent="1">
          <mxGeometry x="910" y="460" width="100" height="40" as="geometry" />
        </mxCell>
        <mxCell id="hcwAdXsDCzIdvA3kFpK7-24" value="Crew" style="whiteSpace=wrap;html=1;align=center;" vertex="1" parent="1">
          <mxGeometry x="-10" y="430" width="100" height="40" as="geometry" />
        </mxCell>
        <mxCell id="hcwAdXsDCzIdvA3kFpK7-25" value="CrewID" style="ellipse;whiteSpace=wrap;html=1;align=center;" vertex="1" parent="1">
          <mxGeometry x="-160" y="510" width="100" height="40" as="geometry" />
        </mxCell>
        <mxCell id="hcwAdXsDCzIdvA3kFpK7-26" value="Name" style="ellipse;whiteSpace=wrap;html=1;align=center;" vertex="1" parent="1">
          <mxGeometry x="-150" y="580" width="100" height="40" as="geometry" />
        </mxCell>
        <mxCell id="hcwAdXsDCzIdvA3kFpK7-27" value="Role" style="ellipse;whiteSpace=wrap;html=1;align=center;" vertex="1" parent="1">
          <mxGeometry x="-160" y="390" width="100" height="40" as="geometry" />
        </mxCell>
        <mxCell id="hcwAdXsDCzIdvA3kFpK7-28" value="ContactInfo" style="ellipse;whiteSpace=wrap;html=1;align=center;" vertex="1" parent="1">
          <mxGeometry x="-160" y="450" width="100" height="40" as="geometry" />
        </mxCell>
        <mxCell id="hcwAdXsDCzIdvA3kFpK7-29" value="Airport" style="whiteSpace=wrap;html=1;align=center;" vertex="1" parent="1">
          <mxGeometry x="490" y="660" width="100" height="40" as="geometry" />
        </mxCell>
        <mxCell id="hcwAdXsDCzIdvA3kFpK7-30" value="Name" style="ellipse;whiteSpace=wrap;html=1;align=center;" vertex="1" parent="1">
          <mxGeometry x="500" y="820" width="100" height="40" as="geometry" />
        </mxCell>
        <mxCell id="hcwAdXsDCzIdvA3kFpK7-31" value="AirportID" style="ellipse;whiteSpace=wrap;html=1;align=center;" vertex="1" parent="1">
          <mxGeometry x="390" y="830" width="100" height="40" as="geometry" />
        </mxCell>
        <mxCell id="hcwAdXsDCzIdvA3kFpK7-32" value="Location" style="ellipse;whiteSpace=wrap;html=1;align=center;" vertex="1" parent="1">
          <mxGeometry x="230" y="730" width="100" height="40" as="geometry" />
        </mxCell>
        <mxCell id="hcwAdXsDCzIdvA3kFpK7-33" value="Facilities" style="ellipse;whiteSpace=wrap;html=1;align=center;" vertex="1" parent="1">
          <mxGeometry x="260" y="820" width="100" height="40" as="geometry" />
        </mxCell>
        <mxCell id="hcwAdXsDCzIdvA3kFpK7-35" value="MaintenanceTask" style="whiteSpace=wrap;html=1;align=center;" vertex="1" parent="1">
          <mxGeometry x="160" y="489" width="100" height="40" as="geometry" />
        </mxCell>
        <mxCell id="hcwAdXsDCzIdvA3kFpK7-36" value="Description" style="ellipse;whiteSpace=wrap;html=1;align=center;" vertex="1" parent="1">
          <mxGeometry x="160" y="580" width="100" height="40" as="geometry" />
        </mxCell>
        <mxCell id="hcwAdXsDCzIdvA3kFpK7-37" value="Starttime" style="ellipse;whiteSpace=wrap;html=1;align=center;" vertex="1" parent="1">
          <mxGeometry x="260" y="590" width="100" height="40" as="geometry" />
        </mxCell>
        <mxCell id="hcwAdXsDCzIdvA3kFpK7-38" value="CompletionTime" style="ellipse;whiteSpace=wrap;html=1;align=center;" vertex="1" parent="1">
          <mxGeometry x="280" y="520" width="100" height="40" as="geometry" />
        </mxCell>
        <mxCell id="hcwAdXsDCzIdvA3kFpK7-39" value="" style="endArrow=none;html=1;rounded=0;entryX=0;entryY=0;entryDx=0;entryDy=0;" edge="1" parent="1" target="hcwAdXsDCzIdvA3kFpK7-24">
          <mxGeometry width="50" height="50" relative="1" as="geometry">
            <mxPoint x="-60" y="410" as="sourcePoint" />
            <mxPoint x="-10" y="360" as="targetPoint" />
          </mxGeometry>
        </mxCell>
        <mxCell id="hcwAdXsDCzIdvA3kFpK7-40" value="" style="endArrow=none;html=1;rounded=0;entryX=0;entryY=0.25;entryDx=0;entryDy=0;exitX=0.928;exitY=0.18;exitDx=0;exitDy=0;exitPerimeter=0;" edge="1" parent="1" source="hcwAdXsDCzIdvA3kFpK7-28" target="hcwAdXsDCzIdvA3kFpK7-24">
          <mxGeometry width="50" height="50" relative="1" as="geometry">
            <mxPoint x="-60" y="460" as="sourcePoint" />
            <mxPoint x="-10" y="480" as="targetPoint" />
          </mxGeometry>
        </mxCell>
        <mxCell id="hcwAdXsDCzIdvA3kFpK7-41" value="" style="endArrow=none;html=1;rounded=0;exitX=1;exitY=0;exitDx=0;exitDy=0;entryX=0;entryY=0.5;entryDx=0;entryDy=0;" edge="1" parent="1" source="hcwAdXsDCzIdvA3kFpK7-25" target="hcwAdXsDCzIdvA3kFpK7-24">
          <mxGeometry width="50" height="50" relative="1" as="geometry">
            <mxPoint x="-60" y="510" as="sourcePoint" />
            <mxPoint x="-10" y="460" as="targetPoint" />
          </mxGeometry>
        </mxCell>
        <mxCell id="hcwAdXsDCzIdvA3kFpK7-42" value="" style="endArrow=none;html=1;rounded=0;entryX=0;entryY=0.75;entryDx=0;entryDy=0;" edge="1" parent="1" target="hcwAdXsDCzIdvA3kFpK7-24">
          <mxGeometry width="50" height="50" relative="1" as="geometry">
            <mxPoint x="-70" y="585" as="sourcePoint" />
            <mxPoint x="-20" y="535" as="targetPoint" />
          </mxGeometry>
        </mxCell>
        <mxCell id="hcwAdXsDCzIdvA3kFpK7-43" value="" style="endArrow=none;html=1;rounded=0;exitX=0.176;exitY=-0.05;exitDx=0;exitDy=0;exitPerimeter=0;entryX=0.5;entryY=1;entryDx=0;entryDy=0;" edge="1" parent="1" source="hcwAdXsDCzIdvA3kFpK7-12" target="hcwAdXsDCzIdvA3kFpK7-13">
          <mxGeometry width="50" height="50" relative="1" as="geometry">
            <mxPoint x="510" y="220" as="sourcePoint" />
            <mxPoint x="560" y="170" as="targetPoint" />
          </mxGeometry>
        </mxCell>
        <mxCell id="hcwAdXsDCzIdvA3kFpK7-44" value="" style="endArrow=none;html=1;rounded=0;exitX=0.36;exitY=-0.07;exitDx=0;exitDy=0;exitPerimeter=0;" edge="1" parent="1" source="hcwAdXsDCzIdvA3kFpK7-12">
          <mxGeometry width="50" height="50" relative="1" as="geometry">
            <mxPoint x="600" y="210" as="sourcePoint" />
            <mxPoint x="600" y="150" as="targetPoint" />
          </mxGeometry>
        </mxCell>
        <mxCell id="hcwAdXsDCzIdvA3kFpK7-45" value="" style="endArrow=none;html=1;rounded=0;exitX=0.5;exitY=0;exitDx=0;exitDy=0;entryX=0;entryY=0.5;entryDx=0;entryDy=0;" edge="1" parent="1" source="hcwAdXsDCzIdvA3kFpK7-12" target="hcwAdXsDCzIdvA3kFpK7-14">
          <mxGeometry width="50" height="50" relative="1" as="geometry">
            <mxPoint x="730" y="210" as="sourcePoint" />
            <mxPoint x="730" y="150" as="targetPoint" />
          </mxGeometry>
        </mxCell>
        <mxCell id="hcwAdXsDCzIdvA3kFpK7-46" value="" style="endArrow=none;html=1;rounded=0;exitX=0.36;exitY=-0.07;exitDx=0;exitDy=0;exitPerimeter=0;entryX=0;entryY=0.5;entryDx=0;entryDy=0;" edge="1" parent="1" target="hcwAdXsDCzIdvA3kFpK7-17">
          <mxGeometry width="50" height="50" relative="1" as="geometry">
            <mxPoint x="660" y="247" as="sourcePoint" />
            <mxPoint x="664" y="180" as="targetPoint" />
          </mxGeometry>
        </mxCell>
        <mxCell id="hcwAdXsDCzIdvA3kFpK7-47" value="" style="endArrow=none;html=1;rounded=0;exitX=1;exitY=0.75;exitDx=0;exitDy=0;entryX=0;entryY=0.5;entryDx=0;entryDy=0;" edge="1" parent="1" source="hcwAdXsDCzIdvA3kFpK7-12" target="hcwAdXsDCzIdvA3kFpK7-18">
          <mxGeometry width="50" height="50" relative="1" as="geometry">
            <mxPoint x="670" y="257" as="sourcePoint" />
            <mxPoint x="705" y="250" as="targetPoint" />
          </mxGeometry>
        </mxCell>
        <mxCell id="hcwAdXsDCzIdvA3kFpK7-48" value="" style="endArrow=none;html=1;rounded=0;exitX=1;exitY=0.75;exitDx=0;exitDy=0;entryX=0.723;entryY=0.02;entryDx=0;entryDy=0;entryPerimeter=0;" edge="1" parent="1" target="hcwAdXsDCzIdvA3kFpK7-15">
          <mxGeometry width="50" height="50" relative="1" as="geometry">
            <mxPoint x="582.5" y="260" as="sourcePoint" />
            <mxPoint x="627.5" y="330" as="targetPoint" />
          </mxGeometry>
        </mxCell>
        <mxCell id="hcwAdXsDCzIdvA3kFpK7-49" value="" style="endArrow=none;html=1;rounded=0;exitX=0.75;exitY=1;exitDx=0;exitDy=0;" edge="1" parent="1" source="hcwAdXsDCzIdvA3kFpK7-12" target="hcwAdXsDCzIdvA3kFpK7-16">
          <mxGeometry width="50" height="50" relative="1" as="geometry">
            <mxPoint x="592.5" y="270" as="sourcePoint" />
            <mxPoint x="637.5" y="340" as="targetPoint" />
            <Array as="points" />
          </mxGeometry>
        </mxCell>
        <mxCell id="hcwAdXsDCzIdvA3kFpK7-50" value="" style="endArrow=none;html=1;rounded=0;entryX=0;entryY=0;entryDx=0;entryDy=0;" edge="1" parent="1" source="hcwAdXsDCzIdvA3kFpK7-20" target="hcwAdXsDCzIdvA3kFpK7-23">
          <mxGeometry width="50" height="50" relative="1" as="geometry">
            <mxPoint x="670" y="550" as="sourcePoint" />
            <mxPoint x="720" y="500" as="targetPoint" />
          </mxGeometry>
        </mxCell>
        <mxCell id="hcwAdXsDCzIdvA3kFpK7-51" value="" style="endArrow=none;html=1;rounded=0;exitX=1;exitY=0.5;exitDx=0;exitDy=0;entryX=0;entryY=0.5;entryDx=0;entryDy=0;" edge="1" parent="1" source="hcwAdXsDCzIdvA3kFpK7-20" target="hcwAdXsDCzIdvA3kFpK7-22">
          <mxGeometry width="50" height="50" relative="1" as="geometry">
            <mxPoint x="680" y="560" as="sourcePoint" />
            <mxPoint x="730" y="510" as="targetPoint" />
          </mxGeometry>
        </mxCell>
        <mxCell id="hcwAdXsDCzIdvA3kFpK7-52" value="" style="endArrow=none;html=1;rounded=0;exitX=1;exitY=0.75;exitDx=0;exitDy=0;entryX=0;entryY=0;entryDx=0;entryDy=0;" edge="1" parent="1" source="hcwAdXsDCzIdvA3kFpK7-20" target="hcwAdXsDCzIdvA3kFpK7-21">
          <mxGeometry width="50" height="50" relative="1" as="geometry">
            <mxPoint x="680" y="570" as="sourcePoint" />
            <mxPoint x="750" y="600" as="targetPoint" />
          </mxGeometry>
        </mxCell>
        <mxCell id="hcwAdXsDCzIdvA3kFpK7-55" value="" style="endArrow=none;html=1;rounded=0;exitX=1;exitY=0.5;exitDx=0;exitDy=0;entryX=0;entryY=0;entryDx=0;entryDy=0;" edge="1" parent="1" source="hcwAdXsDCzIdvA3kFpK7-32" target="hcwAdXsDCzIdvA3kFpK7-29">
          <mxGeometry width="50" height="50" relative="1" as="geometry">
            <mxPoint x="130" y="775" as="sourcePoint" />
            <mxPoint x="180" y="725" as="targetPoint" />
          </mxGeometry>
        </mxCell>
        <mxCell id="hcwAdXsDCzIdvA3kFpK7-56" value="" style="endArrow=none;html=1;rounded=0;exitX=1;exitY=0;exitDx=0;exitDy=0;entryX=0;entryY=0.5;entryDx=0;entryDy=0;" edge="1" parent="1" source="hcwAdXsDCzIdvA3kFpK7-33" target="hcwAdXsDCzIdvA3kFpK7-29">
          <mxGeometry width="50" height="50" relative="1" as="geometry">
            <mxPoint x="80" y="760" as="sourcePoint" />
            <mxPoint x="180" y="740" as="targetPoint" />
          </mxGeometry>
        </mxCell>
        <mxCell id="hcwAdXsDCzIdvA3kFpK7-57" value="" style="endArrow=none;html=1;rounded=0;entryX=0.25;entryY=1;entryDx=0;entryDy=0;" edge="1" parent="1" source="hcwAdXsDCzIdvA3kFpK7-31" target="hcwAdXsDCzIdvA3kFpK7-29">
          <mxGeometry width="50" height="50" relative="1" as="geometry">
            <mxPoint x="75" y="826" as="sourcePoint" />
            <mxPoint x="200" y="770" as="targetPoint" />
          </mxGeometry>
        </mxCell>
        <mxCell id="hcwAdXsDCzIdvA3kFpK7-58" value="" style="endArrow=none;html=1;rounded=0;entryX=0.5;entryY=1;entryDx=0;entryDy=0;exitX=0.292;exitY=0.11;exitDx=0;exitDy=0;exitPerimeter=0;" edge="1" parent="1" source="hcwAdXsDCzIdvA3kFpK7-30" target="hcwAdXsDCzIdvA3kFpK7-29">
          <mxGeometry width="50" height="50" relative="1" as="geometry">
            <mxPoint x="173" y="831" as="sourcePoint" />
            <mxPoint x="215" y="770" as="targetPoint" />
          </mxGeometry>
        </mxCell>
        <mxCell id="hcwAdXsDCzIdvA3kFpK7-61" value="" style="endArrow=none;html=1;rounded=0;exitX=0.5;exitY=0;exitDx=0;exitDy=0;" edge="1" parent="1" source="hcwAdXsDCzIdvA3kFpK7-36" target="hcwAdXsDCzIdvA3kFpK7-35">
          <mxGeometry width="50" height="50" relative="1" as="geometry">
            <mxPoint x="540" y="900" as="sourcePoint" />
            <mxPoint x="590" y="850" as="targetPoint" />
          </mxGeometry>
        </mxCell>
        <mxCell id="hcwAdXsDCzIdvA3kFpK7-63" value="" style="endArrow=none;html=1;rounded=0;exitX=0;exitY=0;exitDx=0;exitDy=0;entryX=1;entryY=0.75;entryDx=0;entryDy=0;" edge="1" parent="1" source="hcwAdXsDCzIdvA3kFpK7-38" target="hcwAdXsDCzIdvA3kFpK7-35">
          <mxGeometry width="50" height="50" relative="1" as="geometry">
            <mxPoint x="700" y="878" as="sourcePoint" />
            <mxPoint x="658" y="830" as="targetPoint" />
          </mxGeometry>
        </mxCell>
        <mxCell id="hcwAdXsDCzIdvA3kFpK7-65" value="isAssociatedWith" style="shape=rhombus;perimeter=rhombusPerimeter;whiteSpace=wrap;html=1;align=center;" vertex="1" parent="1">
          <mxGeometry x="320" y="220" width="120" height="60" as="geometry" />
        </mxCell>
        <mxCell id="hcwAdXsDCzIdvA3kFpK7-66" value="" style="endArrow=none;html=1;rounded=0;exitX=1;exitY=0.5;exitDx=0;exitDy=0;entryX=0;entryY=0.5;entryDx=0;entryDy=0;" edge="1" parent="1" source="hcwAdXsDCzIdvA3kFpK7-5" target="hcwAdXsDCzIdvA3kFpK7-65">
          <mxGeometry relative="1" as="geometry">
            <mxPoint x="200" y="249.5" as="sourcePoint" />
            <mxPoint x="280.58823529411757" y="320" as="targetPoint" />
          </mxGeometry>
        </mxCell>
        <mxCell id="hcwAdXsDCzIdvA3kFpK7-67" value="1" style="resizable=0;html=1;whiteSpace=wrap;align=right;verticalAlign=bottom;" connectable="0" vertex="1" parent="hcwAdXsDCzIdvA3kFpK7-66">
          <mxGeometry x="1" relative="1" as="geometry" />
        </mxCell>
        <mxCell id="hcwAdXsDCzIdvA3kFpK7-72" value="" style="endArrow=none;html=1;rounded=0;exitX=1;exitY=0.5;exitDx=0;exitDy=0;entryX=0;entryY=0.75;entryDx=0;entryDy=0;" edge="1" parent="1" source="hcwAdXsDCzIdvA3kFpK7-65" target="hcwAdXsDCzIdvA3kFpK7-12">
          <mxGeometry relative="1" as="geometry">
            <mxPoint x="400" y="239.5" as="sourcePoint" />
            <mxPoint x="560" y="239.5" as="targetPoint" />
          </mxGeometry>
        </mxCell>
        <mxCell id="hcwAdXsDCzIdvA3kFpK7-73" value="N" style="resizable=0;html=1;whiteSpace=wrap;align=right;verticalAlign=bottom;" connectable="0" vertex="1" parent="hcwAdXsDCzIdvA3kFpK7-72">
          <mxGeometry x="1" relative="1" as="geometry" />
        </mxCell>
        <mxCell id="hcwAdXsDCzIdvA3kFpK7-79" value="has" style="shape=rhombus;perimeter=rhombusPerimeter;whiteSpace=wrap;html=1;align=center;" vertex="1" parent="1">
          <mxGeometry x="640" y="380" width="120" height="60" as="geometry" />
        </mxCell>
        <mxCell id="hcwAdXsDCzIdvA3kFpK7-80" value="" style="endArrow=none;html=1;rounded=0;exitX=0.5;exitY=1;exitDx=0;exitDy=0;entryX=0.5;entryY=0;entryDx=0;entryDy=0;" edge="1" parent="1" source="hcwAdXsDCzIdvA3kFpK7-12" target="hcwAdXsDCzIdvA3kFpK7-79">
          <mxGeometry relative="1" as="geometry">
            <mxPoint x="490" y="440" as="sourcePoint" />
            <mxPoint x="650" y="440" as="targetPoint" />
          </mxGeometry>
        </mxCell>
        <mxCell id="hcwAdXsDCzIdvA3kFpK7-81" value="N" style="resizable=0;html=1;whiteSpace=wrap;align=right;verticalAlign=bottom;" connectable="0" vertex="1" parent="hcwAdXsDCzIdvA3kFpK7-80">
          <mxGeometry x="1" relative="1" as="geometry" />
        </mxCell>
        <mxCell id="hcwAdXsDCzIdvA3kFpK7-88" value="" style="endArrow=none;html=1;rounded=0;entryX=0.5;entryY=1;entryDx=0;entryDy=0;exitX=0.5;exitY=0;exitDx=0;exitDy=0;" edge="1" parent="1" source="hcwAdXsDCzIdvA3kFpK7-20" target="hcwAdXsDCzIdvA3kFpK7-79">
          <mxGeometry relative="1" as="geometry">
            <mxPoint x="490" y="440" as="sourcePoint" />
            <mxPoint x="650" y="440" as="targetPoint" />
          </mxGeometry>
        </mxCell>
        <mxCell id="hcwAdXsDCzIdvA3kFpK7-89" value="M" style="resizable=0;html=1;whiteSpace=wrap;align=left;verticalAlign=bottom;" connectable="0" vertex="1" parent="hcwAdXsDCzIdvA3kFpK7-88">
          <mxGeometry x="-1" relative="1" as="geometry" />
        </mxCell>
        <mxCell id="hcwAdXsDCzIdvA3kFpK7-90" value="" style="resizable=0;html=1;whiteSpace=wrap;align=right;verticalAlign=bottom;" connectable="0" vertex="1" parent="hcwAdXsDCzIdvA3kFpK7-88">
          <mxGeometry x="1" relative="1" as="geometry" />
        </mxCell>
        <mxCell id="hcwAdXsDCzIdvA3kFpK7-91" value="IsAssignedto" style="shape=rhombus;perimeter=rhombusPerimeter;whiteSpace=wrap;html=1;align=center;" vertex="1" parent="1">
          <mxGeometry x="50" y="320" width="120" height="60" as="geometry" />
        </mxCell>
        <mxCell id="hcwAdXsDCzIdvA3kFpK7-92" value="" style="endArrow=none;html=1;rounded=0;exitX=0.422;exitY=1.06;exitDx=0;exitDy=0;exitPerimeter=0;entryX=0.5;entryY=0;entryDx=0;entryDy=0;" edge="1" parent="1" source="hcwAdXsDCzIdvA3kFpK7-5" target="hcwAdXsDCzIdvA3kFpK7-91">
          <mxGeometry relative="1" as="geometry">
            <mxPoint x="-40" y="380" as="sourcePoint" />
            <mxPoint x="120" y="380" as="targetPoint" />
          </mxGeometry>
        </mxCell>
        <mxCell id="hcwAdXsDCzIdvA3kFpK7-93" value="1" style="resizable=0;html=1;whiteSpace=wrap;align=right;verticalAlign=bottom;" connectable="0" vertex="1" parent="hcwAdXsDCzIdvA3kFpK7-92">
          <mxGeometry x="1" relative="1" as="geometry" />
        </mxCell>
        <mxCell id="hcwAdXsDCzIdvA3kFpK7-94" value="" style="endArrow=none;html=1;rounded=0;exitX=0.5;exitY=0;exitDx=0;exitDy=0;entryX=0.5;entryY=1;entryDx=0;entryDy=0;" edge="1" parent="1" source="hcwAdXsDCzIdvA3kFpK7-24" target="hcwAdXsDCzIdvA3kFpK7-91">
          <mxGeometry relative="1" as="geometry">
            <mxPoint x="-40" y="380" as="sourcePoint" />
            <mxPoint x="120" y="380" as="targetPoint" />
          </mxGeometry>
        </mxCell>
        <mxCell id="hcwAdXsDCzIdvA3kFpK7-95" value="M" style="resizable=0;html=1;whiteSpace=wrap;align=left;verticalAlign=bottom;" connectable="0" vertex="1" parent="hcwAdXsDCzIdvA3kFpK7-94">
          <mxGeometry x="-1" relative="1" as="geometry" />
        </mxCell>
        <mxCell id="hcwAdXsDCzIdvA3kFpK7-96" value="" style="resizable=0;html=1;whiteSpace=wrap;align=right;verticalAlign=bottom;" connectable="0" vertex="1" parent="hcwAdXsDCzIdvA3kFpK7-94">
          <mxGeometry x="1" relative="1" as="geometry">
            <mxPoint x="-30" y="-10" as="offset" />
          </mxGeometry>
        </mxCell>
        <mxCell id="hcwAdXsDCzIdvA3kFpK7-97" value="TaskID" style="ellipse;whiteSpace=wrap;html=1;align=center;" vertex="1" parent="1">
          <mxGeometry x="70" y="550" width="100" height="40" as="geometry" />
        </mxCell>
        <mxCell id="hcwAdXsDCzIdvA3kFpK7-98" value="" style="endArrow=none;html=1;rounded=0;exitX=0.5;exitY=0;exitDx=0;exitDy=0;entryX=0;entryY=0.5;entryDx=0;entryDy=0;" edge="1" parent="1" source="hcwAdXsDCzIdvA3kFpK7-97" target="hcwAdXsDCzIdvA3kFpK7-35">
          <mxGeometry width="50" height="50" relative="1" as="geometry">
            <mxPoint x="530" y="860" as="sourcePoint" />
            <mxPoint x="560" y="820" as="targetPoint" />
          </mxGeometry>
        </mxCell>
        <mxCell id="hcwAdXsDCzIdvA3kFpK7-99" value="AirplaneID" style="ellipse;whiteSpace=wrap;html=1;align=center;" vertex="1" parent="1">
          <mxGeometry x="290" y="440" width="100" height="40" as="geometry" />
        </mxCell>
        <mxCell id="hcwAdXsDCzIdvA3kFpK7-100" value="" style="endArrow=none;html=1;rounded=0;exitX=0;exitY=1;exitDx=0;exitDy=0;entryX=1;entryY=0.25;entryDx=0;entryDy=0;" edge="1" parent="1" source="hcwAdXsDCzIdvA3kFpK7-99" target="hcwAdXsDCzIdvA3kFpK7-35">
          <mxGeometry width="50" height="50" relative="1" as="geometry">
            <mxPoint x="720" y="820" as="sourcePoint" />
            <mxPoint x="653" y="784" as="targetPoint" />
          </mxGeometry>
        </mxCell>
        <mxCell id="hcwAdXsDCzIdvA3kFpK7-20" value="Passenger" style="whiteSpace=wrap;html=1;align=center;" vertex="1" parent="1">
          <mxGeometry x="700" y="510" width="100" height="40" as="geometry" />
        </mxCell>
        <mxCell id="hcwAdXsDCzIdvA3kFpK7-103" value="Arrivesat" style="shape=rhombus;perimeter=rhombusPerimeter;whiteSpace=wrap;html=1;align=center;" vertex="1" parent="1">
          <mxGeometry x="510" y="510" width="120" height="60" as="geometry" />
        </mxCell>
        <mxCell id="hcwAdXsDCzIdvA3kFpK7-104" value="" style="endArrow=none;html=1;rounded=0;exitX=0.5;exitY=1;exitDx=0;exitDy=0;entryX=0.611;entryY=0.019;entryDx=0;entryDy=0;entryPerimeter=0;" edge="1" parent="1" source="hcwAdXsDCzIdvA3kFpK7-12" target="hcwAdXsDCzIdvA3kFpK7-103">
          <mxGeometry relative="1" as="geometry">
            <mxPoint x="400" y="550" as="sourcePoint" />
            <mxPoint x="570" y="510" as="targetPoint" />
          </mxGeometry>
        </mxCell>
        <mxCell id="hcwAdXsDCzIdvA3kFpK7-105" value="1" style="resizable=0;html=1;whiteSpace=wrap;align=right;verticalAlign=bottom;" connectable="0" vertex="1" parent="hcwAdXsDCzIdvA3kFpK7-104">
          <mxGeometry x="1" relative="1" as="geometry" />
        </mxCell>
        <mxCell id="hcwAdXsDCzIdvA3kFpK7-106" value="" style="endArrow=none;html=1;rounded=0;exitX=0.639;exitY=0.895;exitDx=0;exitDy=0;exitPerimeter=0;entryX=0.624;entryY=0.021;entryDx=0;entryDy=0;entryPerimeter=0;" edge="1" parent="1" source="hcwAdXsDCzIdvA3kFpK7-103" target="hcwAdXsDCzIdvA3kFpK7-29">
          <mxGeometry relative="1" as="geometry">
            <mxPoint x="570" y="570" as="sourcePoint" />
            <mxPoint x="560" y="650" as="targetPoint" />
          </mxGeometry>
        </mxCell>
        <mxCell id="hcwAdXsDCzIdvA3kFpK7-107" value="1" style="resizable=0;html=1;whiteSpace=wrap;align=right;verticalAlign=bottom;" connectable="0" vertex="1" parent="hcwAdXsDCzIdvA3kFpK7-106">
          <mxGeometry x="1" relative="1" as="geometry" />
        </mxCell>
        <mxCell id="hcwAdXsDCzIdvA3kFpK7-108" value="hasRelationshipwith" style="shape=rhombus;perimeter=rhombusPerimeter;whiteSpace=wrap;html=1;align=center;" vertex="1" parent="1">
          <mxGeometry x="210" y="330" width="120" height="60" as="geometry" />
        </mxCell>
        <mxCell id="hcwAdXsDCzIdvA3kFpK7-110" value="" style="endArrow=none;html=1;rounded=0;entryX=0;entryY=0;entryDx=0;entryDy=0;" edge="1" parent="1" target="hcwAdXsDCzIdvA3kFpK7-108">
          <mxGeometry relative="1" as="geometry">
            <mxPoint x="160" y="276" as="sourcePoint" />
            <mxPoint x="320" y="276" as="targetPoint" />
          </mxGeometry>
        </mxCell>
        <mxCell id="hcwAdXsDCzIdvA3kFpK7-111" value="1" style="resizable=0;html=1;whiteSpace=wrap;align=right;verticalAlign=bottom;" connectable="0" vertex="1" parent="hcwAdXsDCzIdvA3kFpK7-110">
          <mxGeometry x="1" relative="1" as="geometry" />
        </mxCell>
        <mxCell id="hcwAdXsDCzIdvA3kFpK7-112" value="" style="endArrow=none;html=1;rounded=0;exitX=0.5;exitY=1;exitDx=0;exitDy=0;" edge="1" parent="1" source="hcwAdXsDCzIdvA3kFpK7-108" target="hcwAdXsDCzIdvA3kFpK7-35">
          <mxGeometry relative="1" as="geometry">
            <mxPoint x="180" y="550" as="sourcePoint" />
            <mxPoint x="340" y="550" as="targetPoint" />
          </mxGeometry>
        </mxCell>
        <mxCell id="hcwAdXsDCzIdvA3kFpK7-113" value="N" style="resizable=0;html=1;whiteSpace=wrap;align=right;verticalAlign=bottom;" connectable="0" vertex="1" parent="hcwAdXsDCzIdvA3kFpK7-112">
          <mxGeometry x="1" relative="1" as="geometry" />
        </mxCell>
      </root>
    </mxGraphModel>
  </diagram>
</mxfile>
